<?xml version="1.0" standalone="no"?>
<!DOCTYPE svg PUBLIC "-//W3C//DTD SVG 20010904//EN"
 "http://www.w3.org/TR/2001/REC-SVG-20010904/DTD/svg10.dtd">
<svg version="1.0" xmlns="http://www.w3.org/2000/svg"
 width="256.000000pt" height="256.000000pt" viewBox="0 0 256.000000 256.000000"
 preserveAspectRatio="xMidYMid meet">

<g transform="translate(0.000000,256.000000) scale(0.100000,-0.100000)"
fill="#2479D0" stroke="none">
<path d="M1080 2543 c-521 -79 -942 -483 -1056 -1013 -26 -119 -26 -381 0
-500 115 -535 538 -937 1067 -1014 676 -100 1299 338 1445 1014 26 119 26 381
0 500 -146 679 -776 1118 -1456 1013z m891 -338 c32 -68 35 -69 114 -80 92
-13 98 -41 24 -109 -49 -45 -51 -49 -43 -84 4 -20 8 -57 9 -82 0 -59 -19 -62
-100 -19 l-61 33 -59 -32 c-101 -55 -122 -42 -100 63 l15 69 -50 51 c-51 51
-63 88 -34 99 9 3 40 9 69 12 29 4 57 9 63 13 5 3 24 34 41 69 26 51 36 62 57
62 21 0 30 -10 55 -65z m-589 13 c26 -20 56 -75 143 -263 61 -131 119 -243
130 -250 12 -8 126 -27 270 -45 138 -18 265 -39 282 -47 63 -29 93 -120 64
-191 -7 -15 -93 -106 -192 -201 -99 -96 -187 -184 -195 -196 -13 -20 -9 -48
42 -290 56 -266 56 -267 39 -311 -23 -61 -65 -89 -135 -89 -52 0 -69 8 -286
128 -128 70 -241 127 -252 127 -10 0 -122 -57 -248 -126 -251 -139 -288 -151
-354 -117 -44 23 -80 76 -80 118 0 18 23 137 50 266 28 129 50 248 50 264 0
27 -25 55 -191 215 -230 221 -248 253 -196 344 36 65 57 71 332 105 138 18
258 34 268 37 17 5 29 28 173 332 39 84 80 163 91 174 47 53 137 60 195 16z"/>
<path d="M952 1552 c-23 -48 -42 -93 -42 -100 0 -8 17 -12 49 -12 44 0 52 4
71 30 14 20 30 30 47 30 22 0 24 -3 19 -26 -4 -15 -10 -39 -13 -55 l-5 -29
-89 0 c-77 0 -90 -2 -99 -19 -23 -44 -15 -51 65 -51 41 0 75 -4 75 -9 0 -12
-68 -71 -132 -113 -26 -18 -48 -36 -48 -40 0 -12 129 -9 153 3 12 7 42 28 66
47 l44 36 40 -47 c39 -47 39 -47 103 -47 35 0 64 4 64 9 0 5 -25 41 -55 79
-30 39 -55 73 -55 76 0 3 31 6 69 6 65 0 69 1 75 25 4 14 4 30 1 35 -4 6 -41
10 -85 10 l-78 0 12 53 11 52 83 3 c77 3 82 4 88 27 3 13 3 29 -1 34 -4 7 -61
11 -155 11 l-149 0 15 35 14 35 -58 0 -59 0 -41 -88z"/>
<path d="M1440 1548 c-11 -25 -80 -330 -80 -353 0 -13 30 -15 194 -15 107 0
197 4 200 8 8 14 76 334 76 360 l0 22 -190 0 c-188 0 -191 0 -200 -22z m266
-65 c-2 -10 -14 -63 -26 -117 -11 -55 -23 -103 -26 -108 -7 -11 -164 -11 -164
0 0 5 11 60 25 122 14 62 25 115 25 117 0 1 39 3 86 3 77 0 85 -2 80 -17z"/>
<path d="M850 1088 c0 -7 -9 -83 -20 -168 -11 -85 -20 -161 -20 -167 0 -10 86
-13 395 -13 l395 0 31 28 c28 25 35 43 64 172 19 80 31 148 29 152 -3 5 -201
8 -440 8 -340 0 -434 -3 -434 -12z m740 -87 c0 -53 14 -51 -346 -51 -355 0
-341 -2 -328 48 l6 22 334 0 c323 0 334 -1 334 -19z m-30 -144 c0 -46 -6 -47
-340 -47 -174 0 -319 2 -322 5 -2 3 -3 18 0 35 l4 30 329 0 329 0 0 -23z"/>
</g>
</svg>
